<?xml version="1.0" encoding="utf-8"?>
<!-- Generator: Adobe Illustrator 24.3.0, SVG Export Plug-In . SVG Version: 6.00 Build 0)  -->
<svg version="1.1" id="Layer_1" xmlns="http://www.w3.org/2000/svg" xmlns:xlink="http://www.w3.org/1999/xlink" x="0px" y="0px"
	 viewBox="0 0 300 92.58" style="enable-background:new 0 0 300 92.58;" xml:space="preserve">
<style type="text/css">
	.st0{fill:#1D1D1B;}
</style>
<g>
	<path class="st0" d="M91.55,30.52C91.55,13.66,77.89,0,61.03,0H0v30.52v30.52v30.52h61.03c16.85,0,30.52-13.66,30.52-30.52
		c0-5.56-1.49-10.77-4.08-15.26C90.06,41.29,91.55,36.07,91.55,30.52z M73.24,54.93c0,10.11-8.2,18.31-18.31,18.31l0-27.46
		l-9.15,13.73l-9.15-13.73v27.46H18.31V18.31h0h18.31l9.15,13.73l9.15-13.73c10.11,0,18.31,8.2,18.31,18.31
		c0,3.34-0.9,6.46-2.46,9.15C72.34,48.47,73.24,51.59,73.24,54.93z"/>
	<path d="M109.86,36.62h16.6c1.79,0,3.54-0.18,5.25-0.54c1.71-0.36,3.22-0.97,4.55-1.81c1.33-0.84,2.4-1.95,3.21-3.31
		c0.81-1.36,1.22-3.04,1.22-5.04c0-1.14-0.19-2.17-0.57-3.1c-0.38-0.93-0.9-1.75-1.55-2.46c-0.66-0.71-1.4-1.29-2.22-1.76
		c-0.83-0.47-1.67-0.8-2.53-1.01v-0.16c1.62-0.62,2.92-1.57,3.91-2.84c0.98-1.28,1.47-2.9,1.47-4.86c0-2.1-0.47-3.8-1.4-5.09
		c-0.93-1.29-2.1-2.28-3.52-2.95c-1.41-0.67-2.96-1.12-4.63-1.34C127.97,0.11,126.39,0,124.91,0h-15.05V36.62z M121.34,9.57h3.05
		c0.97,0,1.74,0.17,2.33,0.52c0.59,0.35,0.88,0.86,0.88,1.55c0,0.83-0.28,1.44-0.83,1.84c-0.55,0.4-1.26,0.59-2.12,0.59h-3.31V9.57z
		 M121.34,21.98h3.16c0.38,0,0.78,0.04,1.22,0.1c0.43,0.07,0.84,0.2,1.22,0.39c0.38,0.19,0.7,0.44,0.96,0.75
		c0.26,0.31,0.39,0.71,0.39,1.19c0,0.83-0.3,1.46-0.91,1.89c-0.6,0.43-1.39,0.65-2.35,0.65h-3.67V21.98z"/>
	<path d="M159.2,9.78c-1.16,0.72-2.03,1.64-2.61,2.74h-0.1v-3.1H145v27.21h11.95V23.43c0-1.31,0.47-2.41,1.4-3.31
		c0.93-0.9,2.17-1.34,3.72-1.34c0.38,0,0.8,0.03,1.27,0.08c0.47,0.05,0.89,0.13,1.27,0.23l0.93-10.14
		c-0.59-0.17-1.34-0.26-2.28-0.26C161.7,8.69,160.35,9.05,159.2,9.78z"/>
	<path d="M190.59,12.46c-0.98-1.28-2.32-2.28-4.01-3c-1.69-0.72-3.83-1.09-6.41-1.09c-2.41,0-4.76,0.43-7.03,1.29
		c-2.28,0.86-4.24,2.09-5.9,3.67l5.95,5.9c0.76-0.62,1.63-1.16,2.61-1.63c0.98-0.47,2.03-0.7,3.13-0.7c0.93,0,1.68,0.2,2.25,0.59
		c0.57,0.4,0.85,1.01,0.85,1.84v0.1c-1.79,0-3.63,0.12-5.51,0.36c-1.88,0.24-3.58,0.7-5.09,1.37c-1.52,0.67-2.77,1.6-3.75,2.79
		c-0.98,1.19-1.47,2.73-1.47,4.63c0,1.62,0.29,2.98,0.88,4.09c0.59,1.1,1.34,2,2.25,2.69c0.91,0.69,1.93,1.19,3.05,1.5
		c1.12,0.31,2.22,0.47,3.28,0.47c1.21,0,2.45-0.22,3.72-0.67c1.28-0.45,2.26-1.19,2.95-2.22h0.1v2.17h10.81V22.29
		c0-1.9-0.2-3.69-0.59-5.38C192.26,15.22,191.57,13.74,190.59,12.46z M182.81,26.27c0,1.14-0.35,2.07-1.03,2.79
		c-0.69,0.72-1.6,1.09-2.74,1.09c-0.28,0-0.58-0.04-0.91-0.13c-0.33-0.09-0.63-0.22-0.91-0.39c-0.28-0.17-0.5-0.39-0.67-0.65
		c-0.17-0.26-0.26-0.58-0.26-0.96c0-1.03,0.53-1.74,1.6-2.12c1.07-0.38,2.48-0.57,4.24-0.57h0.67V26.27z"/>
	<path d="M225.87,12.39c-0.74-1.09-1.74-1.97-2.99-2.66c-1.26-0.69-2.83-1.03-4.72-1.03c-1.75,0-3.31,0.37-4.67,1.11
		c-1.36,0.74-2.38,1.61-3.07,2.61h-0.1v-3h-11.64v27.21h11.95V22.14c0-1.21,0.25-2.13,0.75-2.77c0.5-0.64,1.15-0.96,1.94-0.96
		c0.86,0,1.51,0.28,1.94,0.83c0.43,0.55,0.65,1.52,0.65,2.9v14.48h11.95V20.07c0-1.34-0.15-2.69-0.44-4.03
		C227.13,14.69,226.61,13.47,225.87,12.39z"/>
	<path d="M251.43,0v11.59h-0.1c-0.79-0.93-1.85-1.65-3.16-2.15c-1.31-0.5-2.62-0.75-3.93-0.75c-2.03,0-3.83,0.41-5.38,1.24
		c-1.55,0.83-2.84,1.91-3.88,3.26c-1.03,1.34-1.82,2.86-2.35,4.55c-0.53,1.69-0.8,3.41-0.8,5.17c0,1.79,0.27,3.55,0.8,5.28
		c0.53,1.72,1.32,3.27,2.35,4.63c1.03,1.36,2.33,2.46,3.88,3.28c1.55,0.83,3.35,1.24,5.38,1.24c1.69,0,3.29-0.32,4.81-0.96
		c1.52-0.64,2.67-1.51,3.47-2.61h0.1v2.84h10.75V0H251.43z M250.73,26.17c-0.85,0.9-1.97,1.34-3.39,1.34
		c-1.45,0-2.55-0.44-3.31-1.32c-0.76-0.88-1.14-1.97-1.14-3.28c0-1.21,0.38-2.26,1.14-3.15c0.76-0.9,1.86-1.34,3.31-1.34
		c1.41,0,2.54,0.45,3.39,1.34c0.84,0.9,1.27,1.95,1.27,3.15C252,24.19,251.58,25.27,250.73,26.17z"/>
	<path d="M283.66,23.74h-0.21l-4.03-14.33h-13.24l11.02,26.13l-0.21,0.57c-0.31,0.83-0.78,1.51-1.42,2.04
		c-0.64,0.53-1.61,0.8-2.92,0.8c-0.52,0-1.1-0.06-1.73-0.18c-0.64-0.12-1.18-0.27-1.63-0.44l-1.5,9.87c0.34,0.1,0.78,0.2,1.29,0.29
		c0.52,0.08,1.08,0.17,1.68,0.26c0.6,0.09,1.23,0.16,1.89,0.21c0.65,0.05,1.29,0.08,1.91,0.08c2,0,3.75-0.24,5.25-0.72
		c1.5-0.48,2.8-1.19,3.91-2.12c1.1-0.93,2.07-2.06,2.9-3.39c0.83-1.33,1.57-2.84,2.22-4.53L300,9.41h-12.78L283.66,23.74z"/>
	<polygon points="132.85,74.64 132.59,74.64 125.96,54.93 109.86,54.93 109.86,91.55 121.34,91.55 120.77,70.86 121.03,70.86 
		127.75,91.55 136.44,91.55 143.27,70.91 143.58,70.96 143.22,91.55 155.22,91.55 155.22,54.93 138.6,54.93 	"/>
	<path d="M184.81,67.52c-1.26-1.33-2.77-2.36-4.53-3.1c-1.76-0.74-3.71-1.11-5.84-1.11c-2.1,0-4.08,0.35-5.92,1.03
		c-1.85,0.69-3.45,1.66-4.81,2.92c-1.36,1.26-2.44,2.79-3.23,4.6c-0.79,1.81-1.19,3.84-1.19,6.08c0,2.41,0.43,4.53,1.29,6.36
		c0.86,1.83,2.01,3.35,3.44,4.58c1.43,1.22,3.08,2.15,4.94,2.77c1.86,0.62,3.78,0.93,5.74,0.93c3.03,0,5.7-0.57,7.99-1.71
		c2.29-1.14,4.04-2.69,5.25-4.66l-8.48-4.29c-0.38,0.48-0.94,0.92-1.68,1.32c-0.74,0.4-1.66,0.59-2.77,0.59
		c-0.55,0-1.1-0.07-1.63-0.21c-0.53-0.14-1.02-0.34-1.45-0.62c-0.43-0.28-0.79-0.6-1.09-0.98c-0.29-0.38-0.46-0.81-0.49-1.29h18.31
		c0.03-0.31,0.06-0.7,0.08-1.16c0.02-0.47,0.03-0.92,0.03-1.37c0-2.14-0.35-4.12-1.03-5.95C187.05,70.43,186.07,68.85,184.81,67.52z
		 M170.25,74.33c0.1-0.76,0.52-1.5,1.24-2.22c0.72-0.72,1.74-1.09,3.05-1.09c1.21,0,2.16,0.31,2.87,0.93
		c0.71,0.62,1.06,1.41,1.06,2.38H170.25z"/>
	<path d="M212.18,66.52h-0.1c-0.79-0.93-1.85-1.65-3.16-2.15c-1.31-0.5-2.62-0.75-3.93-0.75c-2.03,0-3.83,0.41-5.38,1.24
		c-1.55,0.83-2.84,1.91-3.88,3.26c-1.03,1.34-1.82,2.86-2.35,4.55c-0.53,1.69-0.8,3.41-0.8,5.17c0,1.79,0.27,3.55,0.8,5.28
		c0.53,1.72,1.32,3.27,2.35,4.63c1.03,1.36,2.33,2.46,3.88,3.28c1.55,0.83,3.35,1.24,5.38,1.24c1.69,0,3.29-0.32,4.81-0.96
		c1.52-0.64,2.67-1.51,3.47-2.61h0.1v2.84h10.75V54.93h-11.95V66.52z M211.48,81.1c-0.85,0.9-1.97,1.34-3.39,1.34
		c-1.45,0-2.55-0.44-3.31-1.32c-0.76-0.88-1.14-1.97-1.14-3.28c0-1.21,0.38-2.26,1.14-3.15c0.76-0.9,1.86-1.34,3.31-1.34
		c1.41,0,2.54,0.45,3.39,1.34c0.84,0.9,1.27,1.95,1.27,3.15C212.75,79.12,212.32,80.2,211.48,81.1z"/>
	<path d="M240.3,56.71c-0.55-0.54-1.17-0.97-1.87-1.3c-0.7-0.32-1.45-0.48-2.25-0.48c-0.83,0-1.62,0.16-2.35,0.48
		c-0.73,0.32-1.37,0.75-1.92,1.3c-0.55,0.54-0.98,1.18-1.3,1.91c-0.32,0.73-0.47,1.5-0.47,2.31c0,0.85,0.16,1.64,0.47,2.36
		c0.32,0.73,0.75,1.36,1.3,1.88c0.55,0.53,1.19,0.94,1.92,1.25c0.73,0.31,1.52,0.46,2.35,0.46c0.8,0,1.55-0.15,2.25-0.46
		s1.32-0.72,1.87-1.25c0.55-0.53,0.98-1.15,1.3-1.88c0.32-0.73,0.47-1.52,0.47-2.36c0-0.81-0.16-1.58-0.47-2.31
		C241.28,57.89,240.85,57.25,240.3,56.71z"/>
	<rect x="230.12" y="68.71" width="11.95" height="22.84"/>
	<path d="M271.11,67.39c-0.98-1.28-2.32-2.28-4.01-3c-1.69-0.72-3.83-1.09-6.41-1.09c-2.41,0-4.76,0.43-7.03,1.29
		c-2.28,0.86-4.24,2.09-5.9,3.67l5.95,5.9c0.76-0.62,1.63-1.16,2.61-1.63c0.98-0.47,2.03-0.7,3.13-0.7c0.93,0,1.68,0.2,2.25,0.59
		c0.57,0.4,0.85,1.01,0.85,1.84v0.1c-1.79,0-3.63,0.12-5.51,0.36c-1.88,0.24-3.58,0.7-5.09,1.37c-1.52,0.67-2.77,1.6-3.75,2.79
		c-0.98,1.19-1.47,2.73-1.47,4.63c0,1.62,0.29,2.98,0.88,4.09c0.59,1.1,1.34,2,2.25,2.69c0.91,0.69,1.93,1.19,3.05,1.5
		c1.12,0.31,2.21,0.47,3.28,0.47c1.21,0,2.45-0.22,3.72-0.67c1.28-0.45,2.26-1.19,2.95-2.22h0.1v2.17h10.81V77.22
		c0-1.9-0.2-3.69-0.59-5.38C272.79,70.15,272.1,68.67,271.11,67.39z M263.33,81.2c0,1.14-0.35,2.07-1.03,2.79
		c-0.69,0.72-1.6,1.09-2.74,1.09c-0.28,0-0.58-0.04-0.91-0.13c-0.33-0.09-0.63-0.22-0.91-0.39c-0.28-0.17-0.5-0.39-0.67-0.65
		c-0.17-0.26-0.26-0.58-0.26-0.96c0-1.03,0.53-1.74,1.6-2.12c1.07-0.38,2.48-0.57,4.24-0.57h0.67V81.2z"/>
</g>
</svg>
